<svg viewBox="0 0 48 48" xmlns="http://www.w3.org/2000/svg"><path d="m40 12s-4.585-3.588-10-4l-.488.976c4.896 1.198 7.142 2.915 9.488 5.024-4.045-2.065-8.039-4-15-4s-10.955 1.935-15 4c2.346-2.109 5.018-4.015 9.488-5.024l-.488-.976c-5.681.537-10 4-10 4s-5.121 7.425-6 22c5.162 5.953 13 6 13 6l1.639-2.185c-2.782-.967-5.924-2.694-8.639-5.815 3.238 2.45 8.125 5 16 5s12.762-2.55 16-5c-2.715 3.121-5.857 4.848-8.639 5.815l1.639 2.185s7.838-.047 13-6c-.879-14.575-6-22-6-22zm-22.5 18c-1.933 0-3.5-1.791-3.5-4s1.567-4 3.5-4 3.5 1.791 3.5 4-1.567 4-3.5 4zm13 0c-1.933 0-3.5-1.791-3.5-4s1.567-4 3.5-4 3.5 1.791 3.5 4-1.567 4-3.5 4z" fill="#8c9eff"/></svg>