<?xml version="1.0" encoding="utf-8"?>
<!-- Generator: Adobe Illustrator 24.0.1, SVG Export Plug-In . SVG Version: 6.00 Build 0)  -->
<svg version="1.1" id="Layer_1" xmlns="http://www.w3.org/2000/svg" xmlns:xlink="http://www.w3.org/1999/xlink" x="0px" y="0px"
	 viewBox="0 0 63.9 57.6" style="enable-background:new 0 0 63.9 57.6;" xml:space="preserve">
<style type="text/css">
	.st0{fill:#F15BB5;}
</style>
<path class="st0" d="M50.4,28.3c0-10.2-8.3-18.5-18.5-18.5c-10.2,0-18.5,8.3-18.5,18.5c0,3.9,1.2,7.5,3.3,10.5c0,0,1.3,5.4-3.3,7.9
	c0,0,12.9,2.9,23.5-0.7c3.8-1.1,7.1-3.3,9.5-6.3c0.1-0.1,0.1-0.1,0.1-0.2c0.3-0.4,0.5-0.7,0.8-1.1c0,0,0,0,0,0l0,0
	C49.3,35.5,50.4,32,50.4,28.3z M34.7,41.7c-1.5,0-2.7-1.3-2.7-2.8c0-1.6,1.2-2.8,2.7-2.8s2.7,1.3,2.7,2.8
	C37.4,40.4,36.2,41.7,34.7,41.7z M44.5,32.9c0,0-2.5,2.8-4.4,0c-2.1-3.1,4.2-3.2-1.9-13.2c0,0-1-1.9,0-2.5c0,0,0,0,0,0
	s2.3-2.5,5.9,4.5c0,0,0,0,0,0C45.8,24.4,46.5,28.5,44.5,32.9z"/>
</svg>
