<?xml version="1.0" encoding="utf-8"?>
<!-- Generator: Adobe Illustrator 24.0.1, SVG Export Plug-In . SVG Version: 6.00 Build 0)  -->
<svg version="1.1" id="Layer_1" xmlns="http://www.w3.org/2000/svg" xmlns:xlink="http://www.w3.org/1999/xlink" x="0px" y="0px"
	 viewBox="0 0 18.8 17.5" style="enable-background:new 0 0 18.8 17.5;" xml:space="preserve">
<style type="text/css">
	.st0{fill:#F15BB5;}
</style>
<path class="st0" d="M6.9,14.3c-0.4,0.4-1.2,0.4-1.6,0c-0.2-0.2-0.4-0.6-0.3-0.9l0.1-0.6l-0.6,0.1c-0.4,0-0.7-0.1-0.9-0.3
	c-0.4-0.4-0.4-1.2,0-1.6c0.2-0.2,0.5-0.3,0.8-0.3S5,10.8,5.2,11l0.3,0.3l0.9-0.9l1,1l-0.9,0.9l0.4,0.3L7,12.7
	C7.3,13.1,7.3,13.8,6.9,14.3z M14.5,8.7L12.2,11c-1.1,1.1-2.9,1.2-4.1,0.2L6.4,9.5c-0.9-1.2-0.8-2.9,0.3-4L8.3,4
	c0.3,0.2,0.7,0.3,1,0.3c0.4,0,0.9-0.2,1.2-0.5c0.3,0.1,0.5,0.1,0.8,0.1c0.8,0,1.5-0.4,1.9-1C13.3,3,13.3,3,13.3,3.1l1.2,1.2l0,0
	C15.8,5.5,15.8,7.5,14.5,8.7z"/>
</svg>
