<?xml version="1.0" encoding="utf-8"?>
<!-- Generator: Adobe Illustrator 24.0.1, SVG Export Plug-In . SVG Version: 6.00 Build 0)  -->
<svg version="1.1" id="Layer_1" xmlns="http://www.w3.org/2000/svg" xmlns:xlink="http://www.w3.org/1999/xlink" x="0px" y="0px"
	 viewBox="0 0 126.5 17.5" style="enable-background:new 0 0 126.5 17.5;" xml:space="preserve">
<style type="text/css">
	.st0{fill:#F15BB5;}
	.st1{font-family:'HelveticaNowDisplay-XBlk';}
	.st2{font-size:11.2047px;}
</style>
<g>
	<text transform="matrix(1 0 0 1 6.3961 12.1387)" class="st0 st1 st2">DEVGoldNuggets</text>
</g>
<path class="st0" d="M109.9,14.4c-0.4,0.4-1.2,0.4-1.6,0c-0.2-0.2-0.4-0.6-0.3-0.9l0.1-0.6l-0.6,0.1c-0.4,0-0.7-0.1-0.9-0.3
	c-0.4-0.4-0.4-1.2,0-1.6c0.2-0.2,0.5-0.3,0.8-0.3s0.6,0.1,0.8,0.3l0.3,0.3l0.9-0.9l1,1l-0.9,0.9l0.4,0.3l0.1,0.1
	C110.4,13.2,110.4,13.9,109.9,14.4z M117.6,8.8l-2.3,2.3c-1.1,1.1-2.9,1.2-4.1,0.2l-1.7-1.7c-0.9-1.2-0.8-2.9,0.3-4l1.5-1.5
	c0.3,0.2,0.7,0.3,1,0.3c0.4,0,0.9-0.2,1.2-0.5C113.8,4,114,4,114.3,4c0.8,0,1.5-0.4,1.9-1c0.1,0.1,0.1,0.1,0.2,0.2l1.2,1.2l0,0
	C118.8,5.6,118.8,7.6,117.6,8.8z"/>
</svg>
