<?xml version="1.0" encoding="utf-8"?>
<!-- Generator: Adobe Illustrator 24.0.1, SVG Export Plug-In . SVG Version: 6.00 Build 0)  -->
<svg version="1.1" id="Layer_1" xmlns="http://www.w3.org/2000/svg" xmlns:xlink="http://www.w3.org/1999/xlink" x="0px" y="0px"
	 viewBox="0 0 417.2 57.6" style="enable-background:new 0 0 417.2 57.6;" xml:space="preserve">
<style type="text/css">
	.st0{fill:#F15BB5;}
	.st1{font-family:'Helvetica-Bold';}
	.st2{font-size:43.4102px;}
</style>
<text transform="matrix(1.146 0 0 1 -3.7358 40.7045)" class="st0 st1 st2">Bubblegum.dev</text>
<path class="st0" d="M415.9,21.2c0-10.2-8.3-18.5-18.5-18.5s-18.5,8.3-18.5,18.5c0,3.9,1.2,7.5,3.3,10.5c0,0,1.3,5.4-3.3,7.9
	c0,0,12.9,2.9,23.5-0.7c3.8-1.1,7.1-3.3,9.5-6.3c0.1-0.1,0.1-0.1,0.1-0.2c0.3-0.4,0.5-0.7,0.8-1.1l0,0l0,0
	C414.8,28.4,415.9,24.9,415.9,21.2z M400.2,34.6c-1.5,0-2.7-1.3-2.7-2.8c0-1.6,1.2-2.8,2.7-2.8s2.7,1.3,2.7,2.8
	S401.7,34.6,400.2,34.6z M410,25.8c0,0-2.5,2.8-4.4,0c-2.1-3.1,4.2-3.2-1.9-13.2c0,0-1-1.9,0-2.5l0,0c0,0,2.3-2.5,5.9,4.5l0,0
	C411.3,17.3,412.1,21.4,410,25.8z"/>
</svg>
