<?xml version="1.0" encoding="utf-8"?>
<!-- Generator: Adobe Illustrator 24.0.1, SVG Export Plug-In . SVG Version: 6.00 Build 0)  -->
<svg version="1.1" id="Layer_1" xmlns="http://www.w3.org/2000/svg" xmlns:xlink="http://www.w3.org/1999/xlink" x="0px" y="0px"
	 viewBox="0 0 512 512" style="enable-background:new 0 0 512 512;" xml:space="preserve">
<style type="text/css">
	.st0{fill:#EA81A5;}
	.st1{fill:#F5B65D;}
	.st2{fill:#F4AA39;}
	.st3{fill:#F15BB5;}
	.st4{fill:#FE46A5;}
</style>
<path class="st0" d="M506.8,261.6c0,138.3-112.1,250.4-250.4,250.4S6,399.9,6,261.6C6,123.3,118.1,11.2,256.4,11.2
	S506.8,123.3,506.8,261.6z"/>
<path class="st0" d="M382.7,455c-14.6-18-31.7-34-50.7-47.3c20.6-22.3,46.2-46.7,76.2-68.9c13.2-9.8,31-10.7,45-2.5
	c8.7-2.6,18.6-0.5,25.5,6.4c5.1,5.1,7.6,11.9,7.5,18.6c-16.6,38.2-42.4,71.4-74.6,96.9C402.7,465.1,389.9,463.8,382.7,455z
	 M280.3,283.7c16.3-2.4,29.5-14.3,33.6-30c8-4.3,13.5-12.8,13.5-22.5c0-7.4-3.1-14-8.1-18.6c1.7-22.9,1.4-50.1-3.6-79.7
	c-3-18-17.7-31.8-35.8-33.7c-63.8-6.9-107.9-6.8-138.4-4.4c-3.3-6.9-10.3-11.7-18.4-11.7c-10.4,0-18.9,7.7-20.2,17.7
	c-11.9,5-20.9,15.5-23.8,28.4c-8.6,38.5-9.3,88.2-2.1,121.8C79,261.1,228.1,291.5,280.3,283.7z"/>
<path class="st1" d="M399,375c-4.3,3.6-10.8,3.1-14.4-1.3c-3.6-4.3-3.1-10.8,1.3-14.4c4.3-3.6,10.8-3,14.4,1.3S403.3,371.4,399,375z
	 M407.2,388.8c-5,2.7-6.8,8.9-4.1,13.9c2.7,5,8.9,6.8,13.8,4.1s6.8-8.9,4.1-13.9S412.2,386.1,407.2,388.8z M451.7,331.6
	c-2.7-5-8.9-6.8-13.8-4.1s-6.8,8.9-4.1,13.9c2.7,5,8.9,6.8,13.8,4.1S454.4,336.6,451.7,331.6z M150.5,106.6
	c-3.6-4.3-10.1-4.9-14.4-1.3s-4.9,10.1-1.3,14.4s10.1,4.9,14.4,1.3C153.6,117.3,154.1,110.9,150.5,106.6z M157.5,134.8
	c-5,2.7-6.8,8.9-4.1,13.8s8.9,6.8,13.9,4.1c5-2.7,6.8-8.9,4.1-13.8S162.4,132.1,157.5,134.8z M188.1,73.5c-5,2.7-6.8,8.9-4.1,13.8
	c2.7,5,8.9,6.8,13.9,4.1c5-2.7,6.8-8.9,4.1-13.8S193.1,70.8,188.1,73.5z"/>
<path class="st1" d="M140.7,391.8c-14.9,10.6-35.1,9.8-49.4-1.7c-34.2-27.5-59.5-50.8-78.4-70.2C8.4,301.2,6,281.7,6,261.6
	c0-35.6,7.4-69.5,20.8-100.2c9.6-8.6,19.3-16.2,28.4-22.1c5.7-3.7,12.2-5.8,18.7-6.3c6.1-0.5,11.8-3,16.6-6.8
	c0.1-0.1,0.1-0.1,0.2-0.2c9.4-7.4,23-7.1,32.1,0.6c6.7,5.6,9.7,13.7,9,21.6c-0.8,9.6,3,19.1,10.3,25.5c2.9,2.5,5.8,5.1,8.7,7.8
	c5.2,4.8,11.9,7.4,19,7.9c5.9,0.5,11.6,2.9,16.1,7.4c4.8,4.8,7.2,10.9,7.5,17.1c0.2,6.9,2.8,13.6,7.3,18.9
	c7.3,8.6,14.6,17.7,21.6,27.2c8.4,11.4,10.3,26,5.5,38.8c-1.4,3.8-2.2,7.8-1.9,11.8c0.5,7.1-1.9,14.5-7.4,19.9
	c-3.4,3.4-7.4,5.6-11.7,6.7c-5.3,1.4-10.1,4.2-13.9,8.3C178.9,360.7,161.6,376.9,140.7,391.8z M402.3,426.3
	c-5.2-8-11.7-16.5-19.1-25c-2.3-2.6-3.6-6-3.5-9.5c0.3-5.6-1.7-11.2-6-15.5c-4.3-4.3-10-6.3-15.6-5.9c-3.5,0.2-7-1.1-9.6-3.4
	c-11-9.4-22.4-18-33.6-25.1c-14.2-9-32.6-8.4-46.1,1.6c-23.9,17.6-62.3,50.5-117.4,119.1c-5.2,6.5-8.2,14.2-8.9,22.1
	c34.2,17.5,72.8,27.3,113.8,27.3c58.7,0,112.7-20.2,155.4-54.1c0,0-3.3-4.4-3.1-7.1C409.2,442.3,407.1,433.8,402.3,426.3z
	 M472.1,53.8c-0.1,0-0.2-0.1-0.2-0.1c-5.7-2.3-10.8-6-14.3-11c-3.7-5.4-8.7-9.9-14.8-13c-8-4.1-17.2-8-27.2-11.5
	c-4.4-1.5-8-4.6-10.4-8.6c-2.6-4.3-6.8-7.6-12.1-9c-5.3-1.4-10.7-0.6-15.1,1.8c-4.1,2.2-8.7,3.2-13.2,2.4
	c-13.6-2.5-27.2-4.1-39.8-4.6c-16.8-0.7-32.4,9-39.2,24.4c-11.9,27.2-28.7,74.9-42.1,161.9c-2.8,18,6.7,35.7,23.3,43.3
	c44.5,20.4,86.3,26.9,113.8,29.3c17.5,1.6,34.1-8.2,41.1-24.4c17.5-40.2,28.2-79.8,34.8-112.6c1.9-9.5,8.2-17.6,17-21.8
	c7.2-3.4,12.7-10.2,14.2-18.9C489.6,70,483.1,58.3,472.1,53.8z"/>
<path class="st2" d="M106.4,269.1c-8-8-8-20.9,0-28.9c8-8,20.9-8,28.9,0c8,8,8,20.9,0,28.9C127.3,277.1,114.4,277.1,106.4,269.1z
	 M136.1,353.6c5.9-10.3,3.6-23.9-6.2-32c-8.9-7.4-22-7.8-31.4-0.9c-5.4,4-10.3,3.2-14.2-0.3c-15.4-13.9-28.4-26.5-39.4-37.9
	c-2.6-2.7-1.2-7.8,0.1-9.8c7.7-11.8,10-26.2,0-36.1s-31.4-6.3-38,2c-0.7,7.6-1,15.3-1,23c0,20.1,2.4,39.6,6.8,58.3
	c2.8,2.9,5.8,5.9,8.9,8.9c4.7,4.6,7.8,10.5,8.9,16.9c0.9,5,3.2,9.7,7.1,13.6c4.5,4.5,10.2,6.9,16.1,7.4c6.6,0.5,12.9,3.1,18,7.3
	c6.2,5.2,12.7,10.6,19.6,16.1c14.3,11.5,34.5,12,49.4,1.4c9.8-7,18.8-14.2,27-21.5c-9.2,1.8-19,0.5-27.9-3.9
	C136.8,364.7,131.4,361.8,136.1,353.6z M92,196.8c8-8,8-20.9,0-28.9c-8-8-20.9-8-28.9,0c-8,8-8,20.9,0,28.9
	C71,204.8,84,204.8,92,196.8z M346.7,365.5c-10.5-8.9-21.4-17-32-23.8c-8.9-5.6-19.3-7.4-29.2-5.5c-4.8,0.9-9.6,0.3-14.3-1.1
	c-7-2.1-14.8-0.4-20.3,5.1c-3.4,3.4-5.4,7.8-5.9,12.3c-0.7,7-4.1,13.5-9.3,18.2c-7.1,6.5-14.9,13.9-23.3,22.5
	c-4.3,4.4-9.9,7.5-16,8.5c-5.2,0.8-10.2,3.2-14.2,7.2c-4.7,4.7-7.1,10.7-7.4,16.7c-0.3,6.2-2.9,12.1-6.9,16.8
	c-5.3,6.3-10.9,13.1-16.6,20.1c-5.2,6.5-8.2,14.2-8.9,22.1c21.3,10.9,44.3,18.8,68.6,23.2c3.4-1.6,6.6-4,9.1-7.1
	c7.2-8.9,7.3-21.7,0.7-31.2c-4.6-6.6-3.2-10.3,0.4-14.2c12.3-13.6,23.6-25.3,33.8-35.5c9.8-9.8,17.1-1,17.2-1
	c9.3,6.6,22.1,6.1,30.9-1.2c9.4-7.8,11-24.2,5.1-34.1c-2.5-4.2-1-9.8,3.2-12.3C320.4,366.1,334.1,360.2,346.7,365.5z M344.9,434.2
	c-8,8-8,20.9,0,28.9c8,8,20.9,8,28.9,0c8-8,8-20.9,0-28.9C365.8,426.2,352.9,426.2,344.9,434.2z M272.6,477.5c-8,8-8,20.9,0,28.9
	c2,2,4.4,3.5,6.8,4.5c6.7-0.6,13.3-1.5,19.8-2.6c0.8-0.6,16.8-17.1,2.2-30.8C293.3,469.8,280.6,469.5,272.6,477.5z M243.6,186.5
	c-2.8,18.1,6.8,35.8,23.5,43.5c10.9,5,21.7,9.2,32.1,12.6c-8.3-9.5-9.2-36.8-8.8-36.6c14.4,3.9,29.2-5.4,31.8-20.4
	c2-11.5-4.2-23-14.9-27.7c-0.1,0-0.1-0.1-0.2-0.1c-4.9-2.1-7.7-7.4-6.6-12.7c4.3-20.2,8.7-37.7,13-52.8c1-3.6,4.9-5.8,8.5-4.8l0.1,0
	c13.6,3.7,27.6-4.4,31.3-18.1c3.7-13.6-7.6-25.1-20.3-31.3c-7-3.4,6.8-28.1,31-33.4c-13.5-2.4-27-4-39.6-4.6
	C314-0.2,304,3.5,296.4,10.2c-3.3,2.9-7.2,5.1-11.6,5.8c-7.6,1.3-14.1,6.9-16.2,14.8c-1.4,5.1-0.7,10.3,1.6,14.7
	c2.7,5.3,3,11.5,1.2,17.2c-3.3,10.3-6.8,22.1-10.2,35.6c-1.3,4.9-4.1,9.4-8.2,12.4c-4.5,3.3-8,8.1-9.5,14
	c-1.8,6.7-0.7,13.5,2.4,19.1c2.5,4.4,3.3,9.7,2.4,14.7C246.7,167.3,245.1,176.7,243.6,186.5z M422,50.8c-10.9-2.9-22.1,3.5-25,14.5
	c-2.9,10.9,3.6,22.1,14.5,25s22.1-3.6,25-14.5S432.9,53.7,422,50.8z M381.1,124.4c-10.9-2.9-22.1,3.6-25,14.5s3.5,22.1,14.5,25
	c10.9,2.9,22.1-3.5,25-14.4C398.4,138.6,392,127.4,381.1,124.4z"/>
<path class="st3" d="M435,227.1c-4.6,10.5-40.3,67.5-71.5,61.4c-4.8-0.9-8.9-3.5-12.1-6.9c-9-9.8-17.2-29.2-30.1-32.5
	c-17.1-4.4-35.6-10.6-54.6-19.3c-16.6-7.6-33.9-27.4-31.1-45.4c0.6-4.1,1.3-8,1.9-11.9c1.1-6.6,7.8-10.8,14.2-8.8
	c3,0.9,6,1.8,9.1,2.6c56.8,15.2,135.5,4.1,185.5-17.7c7.1-3.1,14.6,3.5,12.5,10.9C452.9,181.1,445.1,204,435,227.1z M370.8,301.7
	c-9.3,0-16.8,7.5-16.8,16.8c0,9.3,7.5,16.8,16.8,16.8c9.3,0,16.8-7.5,16.8-16.8C387.6,309.2,380.1,301.7,370.8,301.7z"/>
<path class="st4" d="M300.3,242.9c-10.9-3.6-22.1-7.9-33.5-13.1c-16.6-7.6-33.9-27.4-31.1-45.4c0.6-4.1,1.3-8,1.9-11.9
	c1.1-6.6,7.8-10.8,14.2-8.8c3,0.9,6,1.8,9.1,2.6c10.8,2.9,22.5,4.8,34.5,5.9c-0.5,1.7-1,3.3-1.5,5
	C287.8,199.9,290.6,223,300.3,242.9z"/>
</svg>
