<svg height="512pt" viewBox="-6 0 512 512.00212" width="512pt" xmlns="http://www.w3.org/2000/svg"><path d="m500.757812 261.621094c0 138.28125-112.097656 250.382812-250.378906 250.382812s-250.378906-112.101562-250.378906-250.382812c0-138.277344 112.097656-250.378906 250.378906-250.378906s250.378906 112.101562 250.378906 250.378906zm0 0" fill="#fdf7bd"/><path d="m376.746094 454.980469c-14.621094-18.011719-31.707032-33.964844-50.726563-47.324219 20.582031-22.292969 46.152344-46.652344 76.222657-68.894531 13.25-9.800781 30.953124-10.707031 44.988281-2.511719 8.726562-2.636719 18.585937-.511719 25.484375 6.386719 5.101562 5.101562 7.585937 11.863281 7.46875 18.550781-16.5625 38.1875-42.355469 71.421875-74.578125 96.90625-8.871094 7.015625-21.730469 5.667969-28.859375-3.113281zm-102.46875-171.28125c16.296875-2.441407 29.457031-14.316407 33.585937-30.035157 8.035157-4.304687 13.503907-12.78125 13.503907-22.535156 0-7.355468-3.113282-13.980468-8.089844-18.644531 1.65625-22.902344 1.425781-50.128906-3.574219-79.6875-3.042969-17.980469-17.707031-31.75-35.835937-33.722656-63.792969-6.941407-107.855469-6.769531-138.441407-4.441407-3.28125-6.90625-10.296875-11.6875-18.449219-11.6875-10.371093 0-18.914062 7.726563-20.242187 17.734376-11.859375 5.039062-20.902344 15.464843-23.808594 28.414062-8.640625 38.46875-9.335937 88.164062-2.089843 121.769531 2.203124 10.214844 151.246093 40.648438 203.441406 32.835938zm0 0" fill="#f7e6b0"/><path d="m393.003906 374.992188c-4.328125 3.625-10.773437 3.050781-14.394531-1.277344-3.621094-4.332032-3.050781-10.777344 1.28125-14.398438 4.328125-3.621094 10.773437-3.046875 14.394531 1.28125s3.046875 10.773438-1.28125 14.394532zm8.21875 13.832031c-4.96875 2.683593-6.816406 8.882812-4.132812 13.851562 2.679687 4.964844 8.882812 6.816407 13.847656 4.132813s6.816406-8.886719 4.132812-13.851563c-2.683593-4.964843-8.882812-6.816406-13.847656-4.132812zm44.507813-57.1875c-2.683594-4.964844-8.882813-6.816407-13.847657-4.132813-4.964843 2.683594-6.816406 8.886719-4.132812 13.851563 2.679688 4.964843 8.882812 6.816406 13.847656 4.132812 4.964844-2.683593 6.816406-8.882812 4.132813-13.851562zm-301.214844-225.0625c-3.621094-4.332031-10.066406-4.902344-14.394531-1.28125-4.328125 3.621093-4.902344 10.066406-1.28125 14.394531s10.066406 4.902344 14.398437 1.28125c4.328125-3.621094 4.902344-10.066406 1.277344-14.394531zm6.9375 28.226562c-4.964844 2.679688-6.816406 8.882813-4.132813 13.847657 2.683594 4.964843 8.882813 6.816406 13.851563 4.132812 4.964844-2.683594 6.816406-8.882812 4.132813-13.847656-2.683594-4.964844-8.886719-6.816406-13.851563-4.132813zm30.660156-61.320312c-4.964843 2.683593-6.816406 8.882812-4.132812 13.847656 2.683593 4.96875 8.882812 6.816406 13.851562 4.132813 4.964844-2.679688 6.816407-8.882813 4.132813-13.847657-2.683594-4.964843-8.886719-6.816406-13.851563-4.132812zm0 0" fill="#f5b65d"/><path d="m134.652344 391.785156c-14.921875 10.601563-35.117188 9.816406-49.378906-1.652344-34.164063-27.46875-59.480469-50.769531-78.445313-70.195312-4.464844-18.714844-6.828125-38.234375-6.828125-58.316406 0-35.621094 7.4375-69.496094 20.847656-100.175782 9.621094-8.621093 19.300782-16.1875 28.382813-22.050781 5.738281-3.699219 12.15625-5.796875 18.667969-6.328125 6.105468-.5 11.828124-3.011718 16.617187-6.832031.066406-.054687.136719-.109375.203125-.160156 9.414062-7.363281 22.984375-7.128907 32.121094.574219 6.652344 5.609374 9.667968 13.714843 9.046875 21.585937-.757813 9.644531 3.03125 19.070313 10.296875 25.457031 2.859375 2.511719 5.765625 5.113282 8.710937 7.804688 5.207031 4.753906 11.925781 7.363281 18.957031 7.914062 5.855469.457032 11.582032 2.925782 16.058594 7.402344 4.753906 4.753906 7.238282 10.914062 7.460938 17.140625.25 6.945313 2.789062 13.601563 7.300781 18.890625 7.332031 8.597656 14.589844 17.664062 21.632813 27.1875 8.398437 11.355469 10.265624 25.984375 5.464843 38.769531-1.414062 3.765625-2.21875 7.757813-1.929687 11.769531.523437 7.144532-1.949219 14.464844-7.410156 19.925782-3.355469 3.355468-7.40625 5.578125-11.691407 6.675781-5.328125 1.367187-10.148437 4.207031-13.863281 8.261719-13.972656 15.269531-31.246094 31.445312-52.222656 46.351562zm261.632812 34.546875c-5.179687-8.035156-11.683594-16.511719-19.082031-25.019531-2.292969-2.636719-3.644531-6.019531-3.472656-9.503906.273437-5.558594-1.710938-11.207032-5.957031-15.453125-4.292969-4.292969-10.015626-6.273438-15.632813-5.949219-3.519531.203125-6.953125-1.125-9.625-3.421875-10.960937-9.40625-22.390625-18.027344-33.566406-25.121094-14.226563-9.035156-32.5625-8.425781-46.136719 1.570313-23.929688 17.625-62.292969 50.542968-117.421875 119.132812-5.222656 6.496094-8.179687 14.222656-8.855469 22.117188 34.15625 17.464844 72.847656 27.320312 113.84375 27.320312 58.730469 0 112.738282-20.21875 155.4375-54.078125-.011718-.011719-3.304687-4.402343-3.140625-7.140625.507813-8.445312-1.59375-17.019531-6.390625-24.453125zm69.804688-372.5c-.078125-.03125-.160156-.0625-.238282-.097656-5.730468-2.265625-10.804687-5.96875-14.316406-11.03125-3.71875-5.363281-8.738281-9.863281-14.804687-12.976563-8.015625-4.113281-17.242188-7.984374-27.203125-11.488281-4.375-1.539062-7.964844-4.640625-10.414063-8.582031-2.640625-4.257812-6.84375-7.554688-12.0625-8.957031-5.300781-1.417969-10.671875-.6171878-15.128906 1.832031-4.050781 2.226562-8.691406 3.179688-13.238281 2.351562-13.589844-2.480468-27.15625-4.109374-39.820313-4.640624-16.839843-.710938-32.417969 8.984374-39.171875 24.429687-11.910156 27.226563-28.675781 74.917969-42.125 161.886719-2.785156 18.019531 6.722656 35.746094 23.300782 43.335937 44.511718 20.382813 86.328124 26.878907 113.761718 29.347657 17.519532 1.578124 34.082032-8.242188 41.105469-24.367188 17.488281-40.164062 28.179687-79.765625 34.75-112.582031 1.910156-9.539063 8.207031-17.574219 16.976563-21.785157 7.171874-3.445312 12.699218-10.199218 14.160156-18.871093 1.964844-11.671875-4.566406-23.339844-15.53125-27.804688zm0 0" fill="#f5b65d"/><path d="m100.421875 269.078125c-7.980469-7.984375-7.980469-20.925781 0-28.90625 7.984375-7.980469 20.925781-7.980469 28.90625 0 7.980469 7.984375 7.980469 20.921875 0 28.90625-7.980469 7.980469-20.925781 7.980469-28.90625 0zm29.640625 84.539063c5.855469-10.285157 3.636719-23.871094-6.164062-31.996094-8.941407-7.414063-22.027344-7.769532-31.375-.875-5.402344 3.984375-10.285157 3.207031-14.210938-.34375-15.417969-13.941406-28.421875-26.542969-39.4375-37.875-2.640625-2.710938-1.21875-7.777344.125-9.835938 7.707031-11.820312 9.976562-26.15625 0-36.132812-9.976562-9.976563-31.4375-6.273438-37.953125 2.03125-.691406 7.585937-1.046875 15.265625-1.046875 23.03125 0 20.078125 2.363281 39.605468 6.828125 58.316406 2.828125 2.894531 5.796875 5.875 8.917969 8.941406 4.664062 4.582032 7.800781 10.503906 8.9375 16.941406.882812 4.976563 3.242187 9.742188 7.089844 13.585938 4.484374 4.484375 10.21875 6.949219 16.082031 7.402344 6.609375.507812 12.886719 3.074218 17.960937 7.34375 6.199219 5.207031 12.734375 10.582031 19.632813 16.125 14.285156 11.480468 34.453125 12.003906 49.382812 1.378906 9.792969-6.96875 18.773438-14.214844 26.992188-21.515625-9.167969 1.828125-19.019531.476563-27.898438-3.929687-3.101562-1.542969-8.542969-4.371094-3.863281-12.59375zm-44.09375-156.804688c7.984375-7.980469 7.984375-20.921875 0-28.902344-7.980469-7.984375-20.921875-7.984375-28.902344 0-7.984375 7.980469-7.984375 20.921875 0 28.902344 7.980469 7.984375 20.921875 7.984375 28.902344 0zm254.761719 168.648438c-10.492188-8.882813-21.375-17.011719-32.023438-23.753907-8.863281-5.613281-19.320312-7.402343-29.214843-5.523437-4.753907.90625-9.625.308594-14.257813-1.078125-6.960937-2.082031-14.808594-.382813-20.308594 5.117187-3.445312 3.441406-5.394531 7.808594-5.859375 12.300782-.726562 7.015624-4.136718 13.484374-9.347656 18.234374-7.125 6.488282-14.882812 13.925782-23.289062 22.480469-4.328126 4.402344-9.894532 7.515625-15.996094 8.453125-5.183594.792969-10.167969 3.1875-14.160156 7.179688-4.652344 4.652344-7.132813 10.652344-7.441407 16.746094-.320312 6.199218-2.894531 12.0625-6.886719 16.808593-5.339843 6.347657-10.859374 13.050781-16.554687 20.140625-5.222656 6.496094-8.179687 14.222656-8.855469 22.113282 21.28125 10.886718 44.320313 18.8125 68.582032 23.242187 3.40625-1.585937 6.550781-3.972656 9.121093-7.144531 7.25-8.933594 7.265625-21.707032.695313-31.15625-4.582032-6.589844-3.199219-10.289063.351562-14.21875 12.3125-13.613282 23.640625-25.285156 33.847656-35.492188 9.761719-9.761718 17.144532-1.035156 17.214844-.984375 9.316406 6.597657 22.144532 6.121094 30.9375-1.160156 9.421875-7.796875 10.976563-24.175781 5.089844-34.0625-2.519531-4.234375-1.019531-9.761719 3.195312-12.308594 8.792969-5.3125 22.554688-11.191406 35.160157-5.933593zm-1.863281 68.703124c-7.980469 7.980469-7.980469 20.921876 0 28.902344 7.984374 7.984375 20.921874 7.984375 28.90625 0 7.980468-7.980468 7.980468-20.921875 0-28.902344-7.984376-7.984374-20.921876-7.984374-28.90625 0zm-72.261719 43.355469c-7.984375 7.984375-7.984375 20.925781 0 28.90625 2.011719 2.011719 4.359375 3.53125 6.839843 4.527344 6.699219-.609375 13.296876-1.484375 19.832032-2.613281.773437-.578125 16.757812-17.074219 2.230468-30.820313-8.199218-7.757812-20.921874-7.980469-28.902343 0zm-29.035157-290.984375c-2.800781 18.113282 6.832032 35.835938 23.5 43.457032 10.929688 4.996093 21.695313 9.152343 32.125 12.621093-8.320312-9.484375-9.164062-36.753906-8.757812-36.644531 14.378906 3.855469 29.183594-5.363281 31.796875-20.367188 1.996094-11.453124-4.214844-23-14.859375-27.679687-.074219-.035156-.148438-.066406-.226562-.101563-4.945313-2.117187-7.703126-7.445312-6.570313-12.707031 4.34375-20.191406 8.730469-37.65625 13.011719-52.785156 1.035156-3.644531 4.859375-5.820313 8.519531-4.832031l.070313.019531c13.628906 3.652344 27.636718-4.4375 31.289062-18.066406 3.652344-13.632813-7.589844-25.109375-20.269531-31.292969-6.984375-3.40625 6.8125-28.105469 30.984375-33.363281-13.527344-2.449219-27.019532-4.046875-39.609375-4.5625-10.546875-.429688-20.566407 3.289062-28.21875 9.9375-3.316407 2.882812-7.234375 5.082031-11.558594 5.84375-7.578125 1.332031-14.078125 6.902343-16.203125 14.824219-1.371094 5.117187-.667969 10.296874 1.59375 14.65625 2.746094 5.300781 3.039062 11.539062 1.203125 17.222656-3.335937 10.308594-6.777344 22.089844-10.21875 35.574218-1.253906 4.929688-4.085937 9.359376-8.183594 12.371094-4.507812 3.316406-7.964843 8.128906-9.523437 13.953125-1.796875 6.710938-.746094 13.515625 2.410156 19.128907 2.503906 4.449218 3.292969 9.664062 2.386719 14.695312-1.597657 8.878906-3.164063 18.234375-4.691407 28.097656zm178.382813-135.765625c-10.902344-2.921875-22.109375 3.546875-25.03125 14.453125-2.921875 10.902344 3.550781 22.109375 14.453125 25.03125s22.109375-3.550781 25.03125-14.453125c2.921875-10.902343-3.546875-22.109375-14.453125-25.03125zm-40.902344 73.679688c-10.902343-2.921875-22.109375 3.550781-25.03125 14.453125s3.546875 22.109375 14.453125 25.03125c10.902344 2.921875 22.109375-3.546875 25.03125-14.449219 2.921875-10.90625-3.550781-22.113281-14.453125-25.035156zm0 0" fill="#f4aa39"/><path d="m429.019531 227.078125c-4.566406 10.492187-40.300781 67.484375-71.476562 61.433594-4.84375-.941407-8.9375-3.457031-12.066407-6.875-9.007812-9.84375-17.160156-29.152344-30.082031-32.484375-17.113281-4.414063-35.625-10.589844-54.628906-19.300782-16.554687-7.585937-33.875-27.429687-31.09375-45.425781.628906-4.066406 1.265625-8.046875 1.910156-11.9375 1.097657-6.640625 7.785157-10.789062 14.210938-8.800781 2.992187.925781 6.015625 1.800781 9.070312 2.617188 56.835938 15.230468 135.464844 4.070312 185.542969-17.6875 7.105469-3.089844 14.617188 3.488281 12.515625 10.945312-6.058594 21.53125-13.859375 44.429688-23.902344 67.515625zm-64.25 74.613281c-9.28125 0-16.808593 7.527344-16.808593 16.808594 0 9.285156 7.527343 16.808594 16.808593 16.808594 9.285157 0 16.808594-7.523438 16.808594-16.808594 0-9.28125-7.523437-16.808594-16.808594-16.808594zm0 0" fill="#ea5569"/><path d="m294.25 242.949219c-10.855469-3.570313-22.078125-7.871094-33.484375-13.097657-16.554687-7.585937-33.875-27.429687-31.09375-45.425781.628906-4.070312 1.265625-8.046875 1.910156-11.941406 1.097657-6.636719 7.785157-10.789063 14.210938-8.796875 2.996093.925781 6.015625 1.800781 9.070312 2.617188 10.835938 2.902343 22.464844 4.839843 34.535157 5.9375-.542969 1.652343-1.046876 3.328124-1.503907 5.03125-6.074219 22.675781-3.257812 45.71875 6.355469 65.675781zm0 0" fill="#e43950"/></svg>