<svg viewBox="0 0 48 48" xmlns="http://www.w3.org/2000/svg" xmlns:xlink="http://www.w3.org/1999/xlink"><linearGradient id="a" gradientUnits="userSpaceOnUse" x1="10.341" x2="40.798" y1="8.312" y2="38.769"><stop offset="0" stop-color="#2aa4f4"/><stop offset="1" stop-color="#007ad9"/></linearGradient><path d="m46.105 11.02c-1.551.687-3.219 1.145-4.979 1.362 1.789-1.062 3.166-2.756 3.812-4.758-1.674.981-3.529 1.702-5.502 2.082-1.576-1.67-3.824-2.706-6.314-2.706-4.783 0-8.661 3.843-8.661 8.582 0 .671.079 1.324.226 1.958-7.196-.361-13.579-3.782-17.849-8.974-.75 1.269-1.172 2.754-1.172 4.322 0 2.979 1.525 5.602 3.851 7.147-1.42-.043-2.756-.438-3.926-1.072v.101c0 4.163 2.986 7.63 6.944 8.419-.723.198-1.488.308-2.276.308-.559 0-1.104-.063-1.632-.158 1.102 3.402 4.299 5.889 8.087 5.963-2.964 2.298-6.697 3.674-10.756 3.674-.701 0-1.387-.04-2.065-.122 3.837 2.429 8.39 3.852 13.278 3.852 15.927 0 24.641-13.079 24.641-24.426 0-.372-.012-.742-.029-1.108 1.7-1.201 3.165-2.715 4.322-4.446" fill="url(#a)"/></svg>